<svg xmlns="http://www.w3.org/2000/svg" viewBox="0 0 960 300" font-family="Space Mono, ui-monospace, monospace">
  <style>
    .stage { fill:#FCFBF8; stroke:#1c1917; stroke-width:1.5; }
    .label { font-size:13px; fill:#1c1917; font-weight:700; }
    .sub   { font-size:10.5px; fill:#57534e; }
    .tag   { font-size:9px; fill:#B5009E; letter-spacing:1px; }
    .arrow { stroke:#1c1917; stroke-width:1.5; marker-end:url(#m); }
    .rule  { stroke:#D100B5; stroke-width:1.5; stroke-dasharray:4 3; }
  </style>
  <defs><marker id="m" viewBox="0 0 10 10" refX="9" refY="5" markerWidth="7" markerHeight="7" orient="auto"><path d="M0,0L10,5L0,10z" fill="#1c1917"/></marker></defs>

  <!-- Stage 1: experiment -->
  <rect class="stage" x="20" y="90" width="170" height="120" rx="3"/>
  <text class="tag"   x="32" y="112">YOUR STUDY</text>
  <text class="label" x="32" y="134">Experiment</text>
  <text class="sub"   x="32" y="156">tasks · questionnaires</text>
  <text class="sub"   x="32" y="172">sensors · sessions</text>

  <line class="arrow" x1="190" y1="150" x2="250" y2="150"/>

  <!-- Stage 2: records -->
  <rect class="stage" x="250" y="40" width="190" height="100" rx="3"/>
  <text class="tag"   x="262" y="62">RECORDS · WHAT HAPPENED</text>
  <text class="label" x="262" y="84">Events &amp; signals</text>
  <text class="sub"   x="262" y="106">key presses, screens,</text>
  <text class="sub"   x="262" y="122">answers, EEG — timestamped</text>

  <!-- Stage 3: interpretations -->
  <rect class="stage" x="250" y="170" width="190" height="100" rx="3"/>
  <text class="tag"   x="262" y="192">INTERPRETATIONS · MEANING</text>
  <text class="label" x="262" y="214">Trials</text>
  <text class="sub"   x="262" y="236">built from records by an</text>
  <text class="sub"   x="262" y="252">explicit task-pattern</text>
  <line class="rule" x1="345" y1="140" x2="345" y2="170"/>
  <text class="tag" x="354" y="160">task-pattern</text>

  <!-- Stage 4: inferences -->
  <line class="arrow" x1="440" y1="90"  x2="530" y2="120"/>
  <line class="arrow" x1="440" y1="220" x2="530" y2="160"/>
  <rect class="stage" x="530" y="100" width="180" height="90" rx="3"/>
  <text class="tag"   x="542" y="122">INFERENCES · THE AGENT</text>
  <text class="label" x="542" y="144">Models</text>
  <text class="sub"   x="542" y="166">fit on trials or directly</text>
  <text class="sub"   x="542" y="182">on records</text>

  <line class="arrow" x1="710" y1="145" x2="760" y2="145"/>

  <!-- Stage 5: the dataset -->
  <rect class="stage" x="760" y="60" width="180" height="180" rx="3"/>
  <text class="tag"   x="772" y="82">ONE BDM DATASET</text>
  <text class="label" x="772" y="104">my-study/</text>
  <text class="sub"   x="772" y="126">├─ dataset.yaml</text>
  <text class="sub"   x="772" y="144">├─ events/</text>
  <text class="sub"   x="772" y="162">├─ trials/</text>
  <text class="sub"   x="772" y="180">└─ models/</text>
  <text class="sub"   x="772" y="210">consistent · documented</text>
  <text class="sub"   x="772" y="226">joinable · analyzable</text>
</svg>
