<?xml version="1.0" encoding="UTF-8"?>
<!DOCTYPE svg PUBLIC "-//W3C//DTD SVG 1.1//EN" "http://www.w3.org/Graphics/SVG/1.1/DTD/svg11.dtd">
<svg xmlns="http://www.w3.org/2000/svg" width="16" height="16" fill="currentColor" viewBox="0 0 16 16">
<g transform="translate(2.75, 0)">
    <path d="M9.283 4.002V12H7.971V5.338h-.065L6.072 6.656V5.385l1.899-1.383z"/>

</g>
<g transform="scale(.725) translate(3.25, 5.35)">
  <path fill="gray" d="M 1.977 0 L 1.977 9.797 L 7.141 9.797 L 7.141 11.375 L 0 11.375 L 0 0 L 1.977 0 Z"/>
</g>
  <path fill="darkgray" d="M14 3a1 1 0 0 1 1 1v8a1 1 0 0 1-1 1H2a1 1 0 0 1-1-1V4a1 1 0 0 1 1-1zM2 2a2 2 0 0 0-2 2v8a2 2 0 0 0 2 2h12a2 2 0 0 0 2-2V4a2 2 0 0 0-2-2z"/>
</svg>
