<?xml version="1.0" encoding="UTF-8"?>
<!DOCTYPE svg PUBLIC "-//W3C//DTD SVG 1.1//EN" "http://www.w3.org/Graphics/SVG/1.1/DTD/svg11.dtd">
<svg xmlns="http://www.w3.org/2000/svg" width="16" height="16" fill="currentColor" viewBox="0 0 16 16">
<g transform="translate(2.75, 0)">
  <path d="M6.646 6.24v.07H5.375v-.064c0-1.213.879-2.402 2.637-2.402 1.582 0 2.613.949 2.613 2.215 0 1.002-.6 1.667-1.287 2.43l-.096.107-1.974 2.22v.077h3.498V12H5.422v-.832l2.97-3.293c.434-.475.903-1.008.903-1.705 0-.744-.557-1.236-1.313-1.236-.843 0-1.336.615-1.336 1.306"/>
</g>
<g fill="gray" transform="scale(.725) translate(3.25, 5.35)">
  <path d="M 1.977 0 L 1.977 9.797 L 7.141 9.797 L 7.141 11.375 L 0 11.375 L 0 0 L 1.977 0 Z"/>
</g>
  <path fill="darkgray" d="M14 3a1 1 0 0 1 1 1v8a1 1 0 0 1-1 1H2a1 1 0 0 1-1-1V4a1 1 0 0 1 1-1zM2 2a2 2 0 0 0-2 2v8a2 2 0 0 0 2 2h12a2 2 0 0 0 2-2V4a2 2 0 0 0-2-2z"/>
</svg>
