<?xml version="1.0" encoding="UTF-8"?>
<!DOCTYPE svg PUBLIC "-//W3C//DTD SVG 1.1//EN" "http://www.w3.org/Graphics/SVG/1.1/DTD/svg11.dtd">
<svg xmlns="http://www.w3.org/2000/svg" width="16" height="16" fill="currentColor" viewBox="0 0 16 16">
<g transform="translate(2.75, 0)">
  <path d="M7.918 8.414h-.879V7.342h.838c.78 0 1.348-.522 1.342-1.237 0-.709-.563-1.195-1.348-1.195-.79 0-1.312.498-1.348 1.055H5.275c.036-1.137.95-2.115 2.625-2.121 1.594-.012 2.608.885 2.637 2.062.023 1.137-.885 1.776-1.482 1.875v.07c.703.07 1.71.64 1.734 1.917.024 1.459-1.277 2.396-2.93 2.396-1.705 0-2.707-.967-2.754-2.144H6.33c.059.597.68 1.06 1.541 1.066.973.006 1.6-.563 1.588-1.354-.006-.779-.621-1.318-1.541-1.318"/>
</g>
<g fill="gray" transform="scale(.725) translate(3.25, 5.35)">
  <path d="M 1.977 0 L 1.977 9.797 L 7.141 9.797 L 7.141 11.375 L 0 11.375 L 0 0 L 1.977 0 Z"/>
</g>
  <path fill="darkgray" d="M14 3a1 1 0 0 1 1 1v8a1 1 0 0 1-1 1H2a1 1 0 0 1-1-1V4a1 1 0 0 1 1-1zM2 2a2 2 0 0 0-2 2v8a2 2 0 0 0 2 2h12a2 2 0 0 0 2-2V4a2 2 0 0 0-2-2z"/>
</svg>
